<?xml version="1.0" encoding="UTF-8" standalone="no"?>
<svg width="119px" height="111px" viewBox="0 0 119 111" version="1.1" xmlns="http://www.w3.org/2000/svg" xmlns:xlink="http://www.w3.org/1999/xlink">
    <!-- Generator: Sketch 42 (36781) - http://www.bohemiancoding.com/sketch -->
    <title>Heart</title>
    <desc>Created with Sketch.</desc>
    <defs></defs>
    <g id="Website" stroke="none" stroke-width="1" fill="none" fill-rule="evenodd">
        <g id="JOME-Mobile" transform="translate(-101.000000, -720.000000)" stroke-width="4" stroke="#FFFFFF" fill-rule="nonzero">
            <g id="social" transform="translate(35.000000, 722.000000)">
                <g id="Heart" transform="translate(68.000000, 0.000000)">
                    <g id="Capa_1">
                        <path d="M57.155,18.7251304 C61.7964,7.70343478 72.3994,0.00230434783 84.732,0.00230434783 C101.3449,0.00230434783 113.3095,14.2408696 114.8137,31.210087 C114.8137,31.210087 115.6256,35.4224348 113.8385,43.0060435 C111.4051,53.3341304 105.685,62.5100435 97.9731,69.5129565 L57.155,106 L17.0246,69.5106522 C9.3127,62.5100435 3.5926,53.3318261 1.1592,43.0037391 C-0.6279,35.4201304 0.184,31.2077826 0.184,31.2077826 C1.6882,14.2385652 13.6528,0 30.2657,0 C42.6006,0 52.5136,7.70343478 57.155,18.7251304 Z" id="Shape"></path>
                    </g>
                </g>
            </g>
        </g>
    </g>
</svg>