<?xml version="1.0" encoding="UTF-8" standalone="no"?>
<svg width="127px" height="127px" viewBox="0 0 127 127" version="1.1" xmlns="http://www.w3.org/2000/svg" xmlns:xlink="http://www.w3.org/1999/xlink">
    <!-- Generator: Sketch 42 (36781) - http://www.bohemiancoding.com/sketch -->
    <title>Internet</title>
    <desc>Created with Sketch.</desc>
    <defs></defs>
    <g id="Website" stroke="none" stroke-width="1" fill="none" fill-rule="evenodd">
        <g id="Artboard" fill-rule="nonzero" fill="#FFFFFF">
            <g id="Internet">
                <g id="Capa_1">
                    <path d="M110.989241,105.589552 C120.939034,94.3763276 127,79.635569 127,63.5 C127,46.7119138 120.439793,31.4368793 109.763034,20.0703793 L109.763034,20.0681897 C109.754276,20.0550517 109.741138,20.0506724 109.734569,20.0397241 C98.6133103,8.21777586 83.0317241,0.650327586 65.7006034,0.0569310345 L65.6984138,0.0547413793 L64.4612586,0.0218965517 C64.141569,0.0109482759 63.8218793,0 63.5,0 C63.1781207,0 62.858431,0.0109482759 62.5387414,0.0218965517 L61.3059655,0.0547413793 L61.3037759,0.0569310345 C43.9726552,0.650327586 28.391069,8.21777586 17.2698103,20.0397241 C17.2610517,20.0506724 17.2479138,20.0550517 17.2413448,20.0681897 C17.2413448,20.0681897 17.2413448,20.0703793 17.2391552,20.072569 C6.5602069,31.4368793 0,46.7119138 0,63.5 C0,79.635569 6.06096552,94.3763276 16.0107586,105.589552 C16.0238966,105.609259 16.0238966,105.631155 16.0392241,105.650862 C16.0786379,105.705603 16.135569,105.731879 16.1771724,105.782241 C27.3575517,118.280793 43.3989655,126.332155 61.3015862,126.945259 L61.3037759,126.947448 L62.5365517,126.980293 C62.858431,126.989052 63.1781207,127 63.5,127 C63.8218793,127 64.141569,126.989052 64.4612586,126.978103 L65.6940345,126.945259 L65.6962241,126.943069 C83.6185517,126.327776 99.6774828,118.261086 110.857862,105.736259 C110.886328,105.699034 110.93231,105.688086 110.958586,105.648672 C110.976103,105.631155 110.976103,105.609259 110.989241,105.589552 Z M4.43405172,65.6896552 L30.7164828,65.6896552 C30.9639138,74.9716034 32.7769483,83.9907931 36.0045,92.4406724 C29.7771207,94.6938276 23.8234483,97.7155517 18.2442069,101.486138 C10.039569,91.7268448 4.9332931,79.2874138 4.43405172,65.6896552 Z M19.4397586,24.136569 C24.8876207,27.679431 30.6880172,30.5172241 36.7380345,32.6368103 C33.0331379,41.6297241 30.9836207,51.3255172 30.7164828,61.3103448 L4.43405172,61.3103448 C4.95737931,47.0622586 10.5366207,34.0885517 19.4397586,24.136569 Z M122.565948,61.3103448 L96.2835172,61.3103448 C96.0163793,51.3255172 93.9668621,41.6297241 90.2619655,32.6368103 C96.3119828,30.5172241 102.112379,27.679431 107.560241,24.136569 C116.463379,34.0885517 122.042621,47.0622586 122.565948,61.3103448 Z M61.3103448,32.7638103 C54.9800517,32.5842586 48.7658103,31.6405172 42.7617759,29.9544828 C47.2002069,20.8498966 53.467,12.6321207 61.3103448,5.78944828 L61.3103448,32.7638103 Z M61.3103448,37.1431207 L61.3103448,61.3103448 L35.0957931,61.3103448 C35.3651207,51.7897241 37.3620862,42.5559483 40.9334138,33.9943966 C47.5155172,35.9015862 54.349431,36.957 61.3103448,37.1431207 Z M65.6896552,37.1431207 C72.650569,36.957 79.4844828,35.9037759 86.0687759,33.9943966 C89.6401034,42.5559483 91.637069,51.7897241 91.9063966,61.3103448 L65.6896552,61.3103448 L65.6896552,37.1431207 Z M65.6896552,32.7638103 L65.6896552,5.78944828 C73.533,12.6321207 79.7997931,20.8498966 84.2382241,29.9544828 C78.2341897,31.6405172 72.0199483,32.5842586 65.6896552,32.7638103 Z M88.4817759,28.6231724 C84.2754483,19.8098103 78.4378276,11.7803448 71.2097759,4.89825862 C84.0323966,6.57553448 95.5696897,12.3737414 104.45531,20.9221552 C99.4103448,24.123431 94.0588276,26.6984655 88.4817759,28.6231724 Z M38.5182241,28.6231724 C32.9411724,26.6984655 27.5896552,24.123431 22.5468793,20.9221552 C31.4303103,12.3737414 42.9697931,6.57553448 55.7924138,4.89825862 C48.5621724,11.7803448 42.7245517,19.8098103 38.5182241,28.6231724 Z M35.0957931,65.6896552 L61.3103448,65.6896552 L61.3103448,87.6694138 C54.0691552,87.8621034 46.9746724,88.9919655 40.1560862,91.0436724 C37.0752414,83.0404828 35.3432241,74.4898793 35.0957931,65.6896552 Z M61.3103448,92.0487241 L61.3103448,121.210552 C52.9152069,113.886155 46.3331034,104.987397 41.8574483,95.116431 C48.1351897,93.2661724 54.6559828,92.2370345 61.3103448,92.0487241 Z M65.6896552,121.210552 L65.6896552,92.0487241 C72.3440172,92.2348448 78.8648103,93.2661724 85.1425517,95.1142414 C80.6668966,104.987397 74.0847931,113.886155 65.6896552,121.210552 Z M65.6896552,87.6694138 L65.6896552,65.6896552 L91.9042069,65.6896552 C91.6567759,74.4898793 89.9247586,83.0404828 86.8417241,91.0458621 C80.0253276,88.9919655 72.9308448,87.8621034 65.6896552,87.6694138 Z M96.2835172,65.6896552 L122.565948,65.6896552 C122.066707,79.2874138 116.962621,91.7268448 108.755793,101.486138 C103.176552,97.7155517 97.2228793,94.6938276 90.9955,92.4406724 C94.2252414,83.9907931 96.0360862,74.9716034 96.2835172,65.6896552 Z M21.2199483,104.766241 C26.4006724,101.324103 31.9164138,98.5563793 37.6795862,96.4871552 C41.9384655,106.034052 48.0519828,114.733552 55.7902241,122.101741 C42.3216552,120.339069 30.2676034,114.032862 21.2199483,104.766241 Z M71.2097759,122.101741 C78.9480172,114.735741 85.0615345,106.036241 89.3204138,96.4871552 C95.0835862,98.5563793 100.597138,101.324103 105.780052,104.766241 C96.7323966,114.032862 84.6783448,120.339069 71.2097759,122.101741 Z" id="Shape"></path>
                </g>
            </g>
        </g>
    </g>
</svg>