<?xml version="1.0" encoding="UTF-8" standalone="no"?>
<svg width="125px" height="125px" viewBox="0 0 125 125" version="1.1" xmlns="http://www.w3.org/2000/svg" xmlns:xlink="http://www.w3.org/1999/xlink">
    <!-- Generator: Sketch 42 (36781) - http://www.bohemiancoding.com/sketch -->
    <title>149229</title>
    <desc>Created with Sketch.</desc>
    <defs></defs>
    <g id="Website" stroke="none" stroke-width="1" fill="none" fill-rule="evenodd">
        <g id="JOME-Mobile" transform="translate(-104.000000, -351.000000)" fill-rule="nonzero" fill="#FFFFFF">
            <g id="Online" transform="translate(47.000000, 351.000000)">
                <g id="149229" transform="translate(57.000000, 0.000000)">
                    <g id="Capa_1">
                        <path d="M109.241379,103.926724 C119.034483,92.8900862 125,78.3814655 125,62.5 C125,45.9762931 118.543103,30.9418103 108.034483,19.7543103 L108.034483,19.7521552 C108.025862,19.7392241 108.012931,19.7349138 108.006466,19.7241379 C97.0603448,8.08836207 81.7241379,0.640086207 64.6659483,0.0560344828 L64.6637931,0.0538793103 L63.4461207,0.0215517241 C63.1314655,0.0107758621 62.8168103,0 62.5,0 C62.1831897,0 61.8685345,0.0107758621 61.5538793,0.0215517241 L60.3405172,0.0538793103 L60.3383621,0.0560344828 C43.2801724,0.640086207 27.9439655,8.08836207 16.9978448,19.7241379 C16.9892241,19.7349138 16.9762931,19.7392241 16.9698276,19.7521552 C16.9698276,19.7521552 16.9698276,19.7543103 16.9676724,19.7564655 C6.45689655,30.9418103 0,45.9762931 0,62.5 C0,78.3814655 5.96551724,92.8900862 15.7586207,103.926724 C15.7715517,103.946121 15.7715517,103.967672 15.7866379,103.987069 C15.825431,104.040948 15.8814655,104.06681 15.9224138,104.116379 C26.9267241,116.418103 42.7155172,124.342672 60.3362069,124.946121 L60.3383621,124.948276 L61.5517241,124.980603 C61.8685345,124.989224 62.1831897,125 62.5,125 C62.8168103,125 63.1314655,124.989224 63.4461207,124.978448 L64.6594828,124.946121 L64.6616379,124.943966 C82.3017241,124.338362 98.1077586,116.398707 109.112069,104.071121 C109.140086,104.034483 109.185345,104.023707 109.211207,103.984914 C109.228448,103.967672 109.228448,103.946121 109.241379,103.926724 Z M4.36422414,64.6551724 L30.2327586,64.6551724 C30.4762931,73.7909483 32.2607759,82.6681034 35.4375,90.9849138 C29.3081897,93.2025862 23.4482759,96.1767241 17.9568966,99.887931 C9.88146552,90.2823276 4.85560345,78.0387931 4.36422414,64.6551724 Z M19.1336207,23.7564655 C24.4956897,27.2435345 30.2047414,30.0366379 36.1594828,32.1228448 C32.512931,40.9741379 30.4956897,50.5172414 30.2327586,60.3448276 L4.36422414,60.3448276 C4.87931034,46.3211207 10.3706897,33.5517241 19.1336207,23.7564655 Z M120.635776,60.3448276 L94.7672414,60.3448276 C94.5043103,50.5172414 92.487069,40.9741379 88.8405172,32.1228448 C94.7952586,30.0366379 100.50431,27.2435345 105.866379,23.7564655 C114.62931,33.5517241 120.12069,46.3211207 120.635776,60.3448276 Z M60.3448276,32.2478448 C54.1142241,32.0711207 47.9978448,31.1422414 42.0883621,29.4827586 C46.4568966,20.5215517 52.625,12.4331897 60.3448276,5.69827586 L60.3448276,32.2478448 Z M60.3448276,36.5581897 L60.3448276,60.3448276 L34.5431034,60.3448276 C34.8081897,50.9741379 36.7737069,41.8857759 40.2887931,33.4590517 C46.7672414,35.3362069 53.4935345,36.375 60.3448276,36.5581897 Z M64.6551724,36.5581897 C71.5064655,36.375 78.2327586,35.3383621 84.7133621,33.4590517 C88.2284483,41.8857759 90.1939655,50.9741379 90.4590517,60.3448276 L64.6551724,60.3448276 L64.6551724,36.5581897 Z M64.6551724,32.2478448 L64.6551724,5.69827586 C72.375,12.4331897 78.5431034,20.5215517 82.9116379,29.4827586 C77.0021552,31.1422414 70.8857759,32.0711207 64.6551724,32.2478448 Z M87.0883621,28.1724138 C82.9482759,19.4978448 77.2025862,11.5948276 70.0883621,4.82112069 C82.7090517,6.47198276 94.0646552,12.1788793 102.810345,20.5926724 C97.8448276,23.7435345 92.5775862,26.2780172 87.0883621,28.1724138 Z M37.9116379,28.1724138 C32.4224138,26.2780172 27.1551724,23.7435345 22.1918103,20.5926724 C30.9353448,12.1788793 42.2931034,6.47198276 54.9137931,4.82112069 C47.7974138,11.5948276 42.0517241,19.4978448 37.9116379,28.1724138 Z M34.5431034,64.6551724 L60.3448276,64.6551724 L60.3448276,86.2887931 C53.2176724,86.4784483 46.2349138,87.5905172 39.5237069,89.6099138 C36.4913793,81.7327586 34.7866379,73.3168103 34.5431034,64.6551724 Z M60.3448276,90.5991379 L60.3448276,119.301724 C52.0818966,112.092672 45.6034483,103.334052 41.1982759,93.6185345 C47.3771552,91.7974138 53.7952586,90.7844828 60.3448276,90.5991379 Z M64.6551724,119.301724 L64.6551724,90.5991379 C71.2047414,90.7823276 77.6228448,91.7974138 83.8017241,93.6163793 C79.3965517,103.334052 72.9181034,112.092672 64.6551724,119.301724 Z M64.6551724,86.2887931 L64.6551724,64.6551724 L90.4568966,64.6551724 C90.2133621,73.3168103 88.5086207,81.7327586 85.4741379,89.612069 C78.7650862,87.5905172 71.7823276,86.4784483 64.6551724,86.2887931 Z M94.7672414,64.6551724 L120.635776,64.6551724 C120.144397,78.0387931 115.12069,90.2823276 107.043103,99.887931 C101.551724,96.1767241 95.6918103,93.2025862 89.5625,90.9849138 C92.7413793,82.6681034 94.5237069,73.7909483 94.7672414,64.6551724 Z M20.8857759,103.116379 C25.9849138,99.7284483 31.4137931,97.0043103 37.0862069,94.9676724 C41.2780172,104.364224 47.2952586,112.926724 54.9116379,120.178879 C41.6551724,118.443966 29.7909483,112.237069 20.8857759,103.116379 Z M70.0883621,120.178879 C77.7047414,112.928879 83.7219828,104.366379 87.9137931,94.9676724 C93.5862069,97.0043103 99.012931,99.7284483 104.114224,103.116379 C95.2090517,112.237069 83.3448276,118.443966 70.0883621,120.178879 Z" id="Shape"></path>
                    </g>
                </g>
            </g>
        </g>
    </g>
</svg>